# xmcd
#
# Track frame offsets:
#	150
#	14405
#	27963
#	42516
#	54333
#	65428
#	76753
#	91828
#	105155
#	120397
#	137275
#	152569
#	167760
#	183418
#	198652
#	218223
#	233249
#	250470
#	266368
#	283646
#
# Disc length: 4067 seconds
#
# Revision: 1
# Processed by: cddbd v1.5PL3 Copyright (c) Steve Scherf et al.
# Submitted via: audiograbber 1.83.01
#
DISCID=050fe114
DTITLE=EDDIE RABBITT - Horizon and Loveline
DYEAR=1979
DGENRE=Country
TTITLE0=I love a rainy night
TTITLE1=747
TTITLE2=Drivin my life away
TTITLE3=Short road to love
TTITLE4=Rockin with my baby
TTITLE5=I need to fall in love again
TTITLE6=So deep in your love
TTITLE7=What will I write
TTITLE8=Pretty Lady
TTITLE9=Just the way it is
TTITLE10=Poure me another Tequila
TTITLE11=Gone to far
TTITLE12=Loveline
TTITLE13=One and only one
TTITLE14=Suspicions
TTITLE15=So fine
TTITLE16=I will never let you go again
TTITLE17=Amazing love
TTITLE18=Its alwys like the first time
TTITLE19=I dont wanna make love
EXTD=
EXTT0=
EXTT1=
EXTT2=
EXTT3=
EXTT4=
EXTT5=
EXTT6=
EXTT7=
EXTT8=
EXTT9=
EXTT10=
EXTT11=
EXTT12=
EXTT13=
EXTT14=
EXTT15=
EXTT16=
EXTT17=
EXTT18=
EXTT19=
PLAYORDER=
